<svg width="35" height="35" viewBox="0 0 35 35" fill="none" xmlns="http://www.w3.org/2000/svg">
<path d="M28.8415 9.31453H25.6157C25.3036 9.31453 25.0236 9.1162 24.9156 8.82308L24.0727 6.50143C23.7169 5.51707 22.7734 4.85791 21.7277 4.85791H13.2738C12.2267 4.85791 11.2846 5.51707 10.9302 6.49998L10.0844 8.82162C9.97648 9.1162 9.69502 9.31453 9.3844 9.31453H6.15856C3.88794 9.31453 2.04169 11.1593 2.04169 13.4284V26.0283C2.04169 28.2975 3.88794 30.1422 6.1571 30.1422H28.8415C31.1121 30.1422 32.9569 28.296 32.9569 26.0283V13.4284C32.9584 11.1593 31.1121 9.31453 28.8415 9.31453ZM31.2084 26.0283C31.2084 27.3335 30.1452 28.3937 28.8415 28.3937H6.15856C4.85335 28.3937 3.79169 27.3321 3.79169 26.0283V13.4284C3.79169 12.1233 4.85481 11.0631 6.15856 11.0631H9.3844C10.4286 11.0631 11.3692 10.4039 11.7279 9.42099L12.5738 7.09643C12.6788 6.80476 12.9617 6.60643 13.2723 6.60643H21.7263C22.0384 6.60643 22.3198 6.80476 22.4263 7.09789L23.2706 9.42245C23.6294 10.4039 24.5715 11.0631 25.6142 11.0631H28.84C30.1452 11.0631 31.2069 12.1247 31.2069 13.4284V26.0283H31.2084ZM17.5 13.637C14.2027 13.637 11.5209 16.3188 11.5209 19.6161C11.5209 22.9133 14.2027 25.5952 17.5 25.5952C20.7973 25.5952 23.4792 22.9133 23.4792 19.6161C23.4792 16.3188 20.7973 13.637 17.5 13.637ZM17.5 23.8452C15.1681 23.8452 13.2709 21.9465 13.2709 19.6161C13.2709 17.2857 15.1696 15.387 17.5 15.387C19.8304 15.387 21.7292 17.2857 21.7292 19.6161C21.7292 21.9465 19.8319 23.8452 17.5 23.8452Z" fill="#263238"/>
</svg>
